# Blender v2.79 (sub 0) OBJ File: 'fence.blend'
# www.blender.org
mtllib fence.mtl
v -2.826002 0.137656 -0.097156
v -2.841195 1.912858 -0.159721
v 2.834460 0.063378 -0.090293
v 2.767990 1.974289 -0.127783
v -2.879234 0.120471 0.157645
v -2.846037 1.977697 0.160388
v 2.685166 0.087911 0.200642
v 2.656521 1.907796 0.205086
v 0.065242 0.052439 -0.118689
v -2.773046 1.002518 -0.200126
v 0.203735 1.896377 -0.328996
v 2.916182 0.990833 -0.050604
v 2.824703 0.099597 0.057603
v 2.795937 1.914923 0.058869
v 2.616832 1.094197 0.153177
v 0.099005 0.072066 0.188409
v -0.043913 1.863528 0.299182
v -2.788153 0.992427 0.167635
v -2.924545 0.014995 0.009762
v -2.929640 1.974458 -0.039436
v -0.042300 2.022080 0.073128
v 0.006603 -0.011833 0.029821
v -3.080747 1.048080 -0.000896
v 0.073753 1.120471 0.170246
v 3.090430 0.980999 0.061031
v -0.330361 0.931288 -0.239146
v -1.430388 0.048354 -0.151771
v -2.854250 1.453717 -0.164716
v 1.601004 1.938155 -0.289719
v 2.854745 0.472587 -0.104657
v 3.020993 0.005944 -0.020003
v 2.877927 1.946413 0.138632
v 2.896154 0.510596 0.211071
v 1.377398 -0.001349 0.191924
v -1.320926 1.960022 0.223817
v -2.909251 0.476492 0.194245
v -2.806880 0.053831 0.083909
v -2.755670 1.944318 -0.072874
v 1.475173 0.077846 -0.108607
v -2.789416 0.522943 -0.184201
v -1.449852 1.969952 -0.092223
v 2.948842 1.512467 -0.040178
v 2.949096 0.017936 0.140006
v 2.893810 1.929387 -0.027217
v 2.707613 1.520730 0.144123
v -1.485154 0.051223 0.162883
v 1.509983 1.975229 0.203662
v -2.767554 1.581767 0.145107
v -2.879416 0.051635 -0.078847
v -2.767802 1.984577 0.043007
v -1.585075 2.133942 -0.073682
v 1.580033 2.021416 0.012083
v -0.038568 2.005869 0.139660
v -0.017993 2.015170 -0.032057
v -1.404822 -0.030196 0.021333
v 1.444570 0.030988 0.051444
v 0.089833 0.000417 -0.047501
v -0.063025 0.009463 0.115592
v -2.996323 1.035083 -0.071371
v -2.868912 0.982189 0.099597
v -3.057149 0.460387 0.006536
v -2.921208 1.501596 0.004194
v -1.736008 0.883850 0.253394
v 1.525047 0.882141 0.421556
v 0.389113 0.564831 0.082119
v -0.266577 1.398469 0.354268
v 2.799105 1.044222 0.134535
v 2.823332 0.971801 -0.027315
v 3.010750 0.519302 0.064239
v 2.927352 1.515594 0.064003
v 1.473040 1.031175 -0.160508
v -0.996753 0.925165 -0.149980
v -0.486015 0.561301 -0.274875
v -0.087995 1.412309 -0.261047
v -1.787616 1.670531 -0.057724
v -1.690643 0.471154 -0.274355
v 1.673404 0.516729 -0.228347
v 2.987875 1.481881 -0.023607
v 3.041193 0.469793 -0.024424
v 3.097706 0.525421 0.142938
v 1.403355 1.542606 0.187650
v 1.386317 0.408188 0.309053
v -1.692513 0.425027 0.313085
v -2.941807 1.519124 0.087550
v -3.036106 0.469355 0.089031
v -2.893408 0.546913 -0.074561
v 1.272867 0.021278 0.121403
v 1.569505 0.023588 -0.029629
v -1.475417 0.017538 -0.064124
v 1.468265 1.987074 -0.031401
v 1.677361 2.087287 0.086139
v -1.531974 2.047698 -0.010372
v -1.494125 1.996744 -0.034317
v -1.445744 0.040348 0.098051
v -3.059794 1.510057 -0.072163
v -1.375040 1.450027 0.293101
v 2.975204 1.458021 0.140318
v 1.458857 1.509004 -0.267064
vt 0.219491 0.248046
vt 0.900526 0.475038
vt 0.866859 0.226912
vt 0.254109 0.623080
vt 0.029874 0.592278
vt 0.246506 0.530900
vt 0.828096 0.254956
vt 0.465805 0.280168
vt 0.493205 0.286393
vt 0.568005 0.016556
vt 0.539771 0.099721
vt 0.212874 0.096047
vt 0.755206 0.526257
vt 0.538062 1.000000
vt 0.499987 0.527302
vt 0.143426 0.022057
vt 0.824273 0.008485
vt 0.175857 0.000000
vt 0.390651 0.723804
vt 0.357702 0.328635
vt 0.567099 0.728835
vt 0.855743 0.030990
vt 0.266180 0.005836
vt 0.892394 0.020400
vt 0.227708 0.000000
vt 0.889551 0.245110
vt 0.918563 0.009234
vt 1.000000 0.252208
vt 0.096696 0.069620
vt 0.666141 0.210349
vt 0.082292 0.234129
vt 0.000085 0.312833
vt 0.173738 0.354440
vt 0.019621 0.485918
vt 0.933229 0.054575
vt 0.704645 0.023785
vt 0.975947 0.022241
vt 0.254813 0.030619
vt 0.998171 0.251802
vt 0.906540 0.042722
vt 0.978394 0.679689
vt 0.778000 0.937475
vt 0.873343 0.740519
vt 0.204358 0.893403
vt 0.101433 0.671854
vt 0.393291 0.245504
vt 0.379660 0.329651
vt 0.275447 0.362610
vt 0.138952 0.037622
vt 0.792286 0.018326
vt 0.866723 0.047253
vt 0.498803 0.418807
vt 0.150285 0.744853
vt 0.645270 0.422360
vt 0.818480 0.683979
vt 0.214400 0.919636
vt 0.698773 0.660154
vt 0.801066 0.875048
vt 0.100716 0.180439
vt 0.421930 0.190905
vt 0.297121 0.276481
vt 0.101922 0.723129
vt 0.918424 0.724787
vt 0.769473 0.252722
vt 0.445158 0.444281
vt 0.737043 0.490436
vt 0.318831 0.909052
vt 0.898999 0.724511
vt 0.183981 0.678447
vt 0.461137 0.219394
vt 0.539684 0.296001
vt 0.456342 0.262387
vt 0.791112 0.339145
vt 0.983193 0.382557
vt 0.774399 0.457035
vt 0.905554 0.496879
vt 0.071506 0.739217
vt 0.736484 0.524527
vt 0.786232 0.728743
vt 0.436079 0.129084
vt 0.736091 0.108084
vt 0.780814 0.666550
vt 0.155170 0.924224
vt 0.914837 0.890227
vt 0.023709 0.422360
vt 0.189539 0.683979
vt 0.043691 0.210349
vt 0.312335 0.346429
vt 0.358907 0.569703
vt 0.157058 0.032597
vt 0.131414 0.038827
vt 0.765641 0.037622
vt 0.804189 0.000000
vt 0.784552 0.032597
vt 0.332355 0.000069
vt 0.000069 0.092889
vt 0.495813 0.359856
vt 0.230888 0.593565
vt 0.276248 0.119974
vt 0.496454 0.253945
vt 0.240006 0.492781
vt 0.122239 0.077561
vt 0.667038 0.231663
vt 0.791921 0.036296
vt 0.027791 0.407807
vt 0.195523 0.010145
vt 0.861345 0.004995
vt 0.270420 0.039969
vt 0.959253 0.149792
vt 0.997273 0.255581
vt 0.762370 0.152059
vt 0.147650 0.477194
vt 0.620506 0.785868
vt 1.000000 0.441451
vt 0.597962 0.273318
vt 0.363326 0.441451
vt 0.669470 0.444281
vt 1.000000 0.519597
vt 0.140401 0.472532
vt 0.164112 0.036296
vt 0.862509 0.014146
vt 0.770314 0.022057
vt 0.096608 0.037813
vt 0.162556 0.011940
vt 0.850396 0.048331
vt 0.094092 0.015482
vt 0.074953 0.020882
vt 0.110862 0.037917
vt 0.839632 0.000069
vt 0.690570 0.080699
vt 0.000000 0.010833
vt 0.813027 0.015774
vt 0.180622 0.186210
vt 0.301192 0.281501
vt 0.301202 0.294371
vt 0.092287 0.229079
vt 0.296156 0.141804
vt 0.157491 0.000085
vt 0.999915 0.143060
vt 0.336984 0.309629
vt 0.000000 0.539048
vt 0.404519 0.274717
vt 0.865467 0.200094
vt 0.062169 0.196079
vt 0.138193 0.422998
vt 0.035189 0.251835
vt 0.773931 0.042736
vt 0.057282 0.000000
vt 0.129938 0.946348
vt 0.258748 0.539419
vt 0.929594 0.425880
vt 0.745473 0.205512
vt 0.660502 0.125377
vt 0.855123 0.531698
vt 0.582620 0.275615
vt 0.957962 0.003492
vt 0.969032 0.225574
vt 0.134384 0.642803
vt 0.044550 0.231663
vt 0.114948 0.897843
vt 0.782581 0.924224
vt 0.000000 0.785868
vt 0.844446 0.919636
vt 0.112625 0.927803
vt 0.819318 0.945899
vt 0.109693 0.494353
vt 0.015188 0.730530
vt 0.950145 0.016875
vt 0.721563 0.013330
vt 0.000000 0.273035
vt 0.922631 0.946616
vt 0.419965 0.273318
vt 0.964705 0.928955
vt 0.071950 0.449293
vt 0.521626 0.000085
vt 1.000000 0.274949
vt 0.495536 0.000000
vt 0.139794 0.255593
vt 0.014356 0.220946
vt 0.108684 0.685683
vt 0.851212 0.038184
vt 0.999931 0.078536
vt 0.267685 0.040471
vt 0.758234 0.914063
vt 0.630983 0.307033
vt 0.377562 0.476167
vt 0.179817 0.928598
vn 0.1071 0.0906 -0.9901
vn -0.0241 0.9001 -0.4349
vn -0.9054 0.3108 -0.2891
vn 0.2763 0.1743 0.9451
vn 0.0178 0.9328 -0.3599
vn 0.0143 -0.8679 -0.4966
vn -0.7026 0.4929 0.5133
vn 0.1026 -0.0400 -0.9939
vn 0.0314 -0.9919 -0.1234
vn 0.3253 -0.1007 0.9403
vn -0.1012 -0.1102 0.9887
vn -0.7321 -0.0832 -0.6761
vn -0.0095 -0.6751 0.7376
vn 0.0117 -0.2681 -0.9633
vn -0.0043 0.9821 -0.1882
vn 0.0928 0.0732 0.9930
vn 0.6267 0.2159 0.7488
vn -0.0106 0.9044 -0.4266
vn -0.0005 -0.7577 0.6526
vn -0.4779 0.0723 0.8754
vn -0.1059 -0.0022 0.9944
vn -0.0478 0.1400 0.9890
vn 0.0099 -0.0182 0.9998
vn 0.6420 0.2018 -0.7396
vn 0.1505 0.0103 -0.9886
vn 0.0351 0.1441 -0.9889
vn 0.0050 -0.1420 -0.9899
vn 0.3869 -0.0058 -0.9221
vn 0.0878 0.6842 -0.7240
vn 0.0098 -0.2174 -0.9760
vn 0.0336 0.0141 0.9993
vn 0.6984 -0.2880 -0.6552
vn -0.3070 -0.0203 0.9515
vn -0.1438 -0.0520 -0.9882
vn -0.0566 -0.0339 0.9978
vn -0.0100 -0.3776 0.9259
vn -0.4846 -0.0633 0.8725
vn -0.4231 -0.0580 -0.9042
vn -0.0251 -0.7425 0.6694
vn -0.0402 -0.7606 0.6480
vn -0.0143 -0.7398 0.6726
vn 0.1453 0.1663 0.9753
vn 0.0758 -0.2282 -0.9706
vn 0.0400 -0.2510 -0.9672
vn -0.0099 0.9335 0.3584
vn -0.0570 -0.3102 -0.9490
vn -0.0311 0.9265 0.3749
vn -0.0426 -0.7087 0.7042
vn 0.0611 0.7611 0.6458
vn -0.0136 0.7333 0.6798
vn 0.0348 0.1590 -0.9867
vn 0.0093 0.9717 0.2362
vn -0.1325 0.1503 -0.9797
vn 0.0389 0.9773 0.2085
vn -0.0939 0.0732 0.9929
vn -0.0217 0.8109 -0.5847
vn -0.0068 -0.9423 -0.3348
vn 0.0051 -0.2112 -0.9774
vn 0.0482 -0.9852 0.1643
vn -0.0226 -0.8806 -0.4733
vn -0.0012 -0.8249 -0.5653
vn 0.0187 -0.8042 -0.5941
vn 0.6660 -0.1909 -0.7211
vn -0.0004 -0.9904 -0.1385
vn 0.0307 -0.9975 -0.0632
vn -0.9245 -0.2733 0.2655
vn -0.8873 -0.0211 -0.4606
vn -0.6330 0.1909 0.7502
vn -0.5903 -0.3347 0.7345
vn -0.8118 0.2531 -0.5262
vn -0.4382 -0.0393 0.8980
vn -0.1146 0.9880 0.1036
vn -0.2530 -0.2609 0.9316
vn 0.2822 -0.2990 0.9116
vn 0.3032 -0.1091 0.9467
vn 0.0124 -0.2752 0.9613
vn 0.0326 -0.0450 0.9985
vn -0.1118 0.3134 0.9430
vn 0.9385 -0.0376 0.3432
vn 0.0283 0.1316 0.9909
vn 0.2223 0.1021 0.9696
vn 0.3948 -0.0259 -0.9184
vn 0.4460 0.0866 -0.8908
vn 0.3156 -0.0949 -0.9441
vn -0.5080 -0.1015 -0.8553
vn 0.0196 -0.2673 -0.9634
vn 0.0368 0.2114 -0.9767
vn -0.0358 0.5770 0.8160
vn 0.0549 -0.1752 -0.9830
vn -0.1193 -0.0037 -0.9928
vn 0.3153 -0.0610 -0.9470
vn -0.2068 -0.2667 0.9413
vn -0.0421 -0.0469 0.9980
vn -0.9674 -0.0357 0.2507
vn 0.1496 -0.1274 -0.9805
vn -0.4081 -0.0801 -0.9094
vn 0.0794 0.1607 -0.9838
vn -0.0233 0.9471 -0.3201
vn -0.4563 0.0737 0.8868
vn 0.6708 -0.1208 -0.7317
vn -0.0237 0.9800 -0.1978
vn -0.0090 -0.9861 -0.1659
vn -0.4056 0.0215 -0.9138
vn 0.0101 -0.2675 -0.9635
vn 0.0142 -0.9935 0.1126
vn 0.1920 -0.1199 0.9740
vn -0.0225 -0.3835 0.9233
vn -0.3229 -0.0009 -0.9464
vn 0.0653 -0.9180 -0.3913
vn 0.0149 -0.2786 -0.9603
vn 0.0365 0.9287 0.3690
vn 0.0651 -0.0529 0.9965
vn 0.8404 0.1808 0.5110
vn -0.0132 0.9249 -0.3799
vn -0.0240 -0.9882 0.1512
vn -0.1680 0.1161 -0.9789
vn -0.0770 0.0408 0.9962
vn -0.0481 0.1395 0.9891
vn 0.1016 -0.0005 0.9948
vn 0.8882 0.1754 -0.4246
vn 0.0682 -0.2152 -0.9742
vn 0.0232 0.0864 -0.9960
vn 0.0299 -0.0626 -0.9976
vn 0.2597 -0.0908 0.9614
vn 0.1231 0.8733 -0.4713
vn 0.0473 -0.0692 -0.9965
vn 0.1575 0.3553 0.9214
vn 0.2590 0.0736 0.9631
vn -0.6473 0.0517 0.7605
vn -0.1163 0.0167 -0.9931
vn 0.1007 -0.4605 0.8819
vn 0.0987 0.1539 0.9831
vn -0.6046 0.2213 -0.7651
vn -0.5019 -0.0225 -0.8646
vn 0.0111 -0.9683 0.2494
vn -0.0114 -0.9873 0.1587
vn -0.0295 -0.8654 0.5002
vn 0.3020 0.1889 0.9344
vn -0.0123 0.9976 -0.0684
vn -0.0807 0.4944 -0.8655
vn 0.0170 0.7458 0.6660
vn -0.0898 -0.2114 -0.9733
vn 0.0089 0.9979 0.0644
vn 0.0098 -0.9478 -0.3186
vn 0.0399 0.6941 0.7187
vn -0.0127 0.7463 0.6655
vn 0.0808 0.0924 -0.9924
vn -0.0565 0.7817 -0.6211
vn -0.0226 0.2961 -0.9549
vn 0.0866 0.6615 -0.7450
vn -0.0681 0.1224 0.9901
vn 0.0189 0.9979 -0.0612
vn 0.0153 -0.8048 -0.5934
vn -0.0737 -0.9284 -0.3642
vn -0.0130 -0.6540 0.7564
vn -0.0183 -0.9206 -0.3900
vn -0.0054 -0.7813 -0.6242
vn 0.0198 -0.8129 -0.5821
vn 0.4540 -0.1875 -0.8711
vn 0.0371 -0.6812 -0.7311
vn 0.0075 -0.9691 0.2467
vn -0.4520 -0.2599 0.8533
vn -0.3879 -0.1221 -0.9136
vn -0.6465 0.1899 0.7389
vn -0.7078 0.0129 -0.7062
vn -0.2821 -0.0928 0.9549
vn -0.9017 0.3205 -0.2902
vn 0.0044 0.5935 0.8048
vn 0.0091 0.2057 0.9786
vn 0.0558 0.1250 0.9906
vn 0.0158 0.0066 0.9999
vn 0.0686 -0.0588 0.9959
vn -0.0105 -0.1569 0.9876
vn 0.1265 -0.4352 0.8914
vn 0.3015 -0.1485 0.9418
vn 0.1159 -0.0911 0.9891
vn 0.3954 0.0488 -0.9172
vn 0.3387 -0.0498 -0.9396
vn 0.6440 0.1085 -0.7573
vn 0.8388 0.2532 0.4820
vn -0.7253 0.0019 -0.6884
vn 0.0220 -0.2715 -0.9622
vn -0.0832 -0.0302 -0.9961
vn 0.0034 0.9716 0.2365
vn 0.0982 0.0080 -0.9951
vn -0.1328 0.0218 -0.9909
vn 0.9133 0.3969 0.0920
vn -0.2424 -0.1563 0.9575
vn -0.0912 0.1435 0.9854
vn -0.3976 0.1109 0.9108
vn 0.1398 -0.0983 -0.9853
vn -0.6436 -0.0355 -0.7645
usemtl Material.001
s off
f 77/1/1 12/2/1 30/3/1
f 41/4/2 38/5/2 93/6/2
f 50/7/3 62/8/3 84/9/3
f 80/10/4 25/11/4 67/12/4
f 90/13/5 11/14/5 54/15/5
f 89/16/6 22/17/6 55/18/6
f 2/19/7 95/20/7 38/21/7
f 3/22/8 77/1/8 30/3/8
f 57/23/9 56/24/9 22/25/9
f 33/26/10 43/27/10 80/28/10
f 5/29/11 83/30/11 36/31/11
f 1/32/12 86/33/12 40/34/12
f 7/35/13 87/36/13 43/37/13
f 9/38/14 77/39/14 39/40/14
f 90/13/15 4/41/15 29/42/15
f 81/43/16 17/44/16 66/45/16
f 70/46/17 44/47/17 14/48/17
f 54/15/18 41/4/18 93/6/18
f 46/49/19 58/50/19 16/51/19
f 20/52/20 95/20/20 62/8/20
f 48/53/21 63/54/21 96/55/21
f 35/56/22 66/57/22 17/58/22
f 45/59/23 67/12/23 97/60/23
f 32/61/24 70/46/24 14/48/24
f 12/2/25 98/62/25 42/63/25
f 77/64/26 26/65/26 71/66/26
f 11/67/27 98/68/27 74/69/27
f 78/70/28 12/71/28 42/72/28
f 91/73/29 14/74/29 52/75/29
f 71/76/30 74/69/30 98/68/30
f 81/77/31 15/78/31 45/79/31
f 67/12/32 70/46/32 97/60/32
f 60/80/33 48/81/33 84/9/33
f 74/82/34 41/83/34 11/84/34
f 63/85/35 66/57/35 96/86/35
f 16/51/36 83/87/36 46/49/36
f 59/88/37 62/8/37 95/20/37
f 28/89/38 59/88/38 95/20/38
f 55/18/39 58/50/39 94/90/39
f 37/91/40 46/92/40 5/29/40
f 37/91/41 55/93/41 94/94/41
f 33/95/42 67/12/42 15/96/42
f 21/97/43 93/6/43 51/98/43
f 38/5/44 51/98/44 93/6/44
f 35/99/45 53/100/45 92/101/45
f 1/102/46 76/103/46 27/104/46
f 50/105/47 35/99/47 92/101/47
f 58/106/48 34/107/48 16/108/48
f 91/73/49 8/109/49 32/110/49
f 53/100/50 47/111/50 91/73/50
f 10/112/51 75/113/51 72/114/51
f 53/100/52 52/75/52 21/97/52
f 73/115/53 72/116/53 26/117/53
f 90/13/54 14/74/54 44/118/54
f 83/30/55 18/119/55 36/31/55
f 90/13/56 21/97/56 52/75/56
f 27/120/57 57/121/57 89/16/57
f 1/102/58 89/122/58 49/123/58
f 88/124/59 13/125/59 56/126/59
f 19/127/60 89/122/60 55/93/60
f 3/22/61 88/124/61 39/128/61
f 39/40/62 57/23/62 9/38/62
f 43/129/63 69/130/63 80/10/63
f 56/126/64 43/27/64 87/131/64
f 87/132/65 22/25/65 56/24/65
f 19/133/66 85/134/66 61/135/66
f 19/133/67 86/33/67 49/136/67
f 36/137/68 60/80/68 85/134/68
f 37/138/69 36/137/69 85/134/69
f 84/9/70 6/139/70 50/7/70
f 84/9/71 23/140/71 60/80/71
f 50/105/72 51/98/72 20/141/72
f 65/142/73 34/107/73 82/143/73
f 82/144/74 15/78/74 64/145/74
f 45/59/75 32/61/75 8/146/75
f 7/147/76 82/144/76 34/148/76
f 45/79/77 47/149/77 81/77/77
f 81/43/78 24/150/78 64/151/78
f 69/130/79 31/152/79 79/153/79
f 83/87/80 24/154/80 63/85/80
f 79/153/81 12/71/81 68/155/81
f 31/156/82 30/3/82 79/157/82
f 42/72/83 44/47/83 78/70/83
f 78/70/84 25/11/84 68/155/84
f 10/158/85 86/33/85 59/88/85
f 73/115/86 27/120/86 76/159/86
f 76/103/87 10/112/87 72/114/87
f 92/101/88 21/97/88 51/98/88
f 75/113/89 2/160/89 41/161/89
f 74/82/90 72/116/90 75/162/90
f 69/130/91 68/155/91 25/11/91
f 65/142/92 64/151/92 24/150/92
f 48/53/93 35/163/93 6/164/93
f 85/134/94 23/140/94 61/135/94
f 98/62/95 4/165/95 42/63/95
f 61/135/96 59/88/96 86/33/96
f 77/1/97 71/166/97 12/2/97
f 41/4/98 2/167/98 38/5/98
f 50/7/99 20/52/99 62/8/99
f 80/10/100 69/130/100 25/11/100
f 90/13/101 29/42/101 11/14/101
f 89/16/102 57/121/102 22/17/102
f 2/19/103 28/89/103 95/20/103
f 3/22/104 39/128/104 77/1/104
f 57/23/105 88/168/105 56/24/105
f 33/26/106 7/147/106 43/27/106
f 5/29/107 46/92/107 83/30/107
f 1/32/108 49/136/108 86/33/108
f 7/35/109 34/169/109 87/36/109
f 9/38/110 73/170/110 77/39/110
f 90/13/111 44/118/111 4/41/111
f 81/43/112 47/171/112 17/44/112
f 70/46/113 78/70/113 44/47/113
f 54/15/114 11/14/114 41/4/114
f 46/49/115 94/90/115 58/50/115
f 20/52/116 38/21/116 95/20/116
f 48/53/117 18/119/117 63/54/117
f 35/56/118 96/86/118 66/57/118
f 45/59/119 15/96/119 67/12/119
f 32/61/120 97/60/120 70/46/120
f 12/2/121 71/166/121 98/62/121
f 77/64/122 73/172/122 26/65/122
f 11/67/123 29/173/123 98/68/123
f 78/70/124 68/155/124 12/71/124
f 91/73/125 32/110/125 14/74/125
f 71/76/126 26/174/126 74/69/126
f 81/77/127 64/145/127 15/78/127
f 67/12/128 25/11/128 70/46/128
f 60/80/129 18/175/129 48/81/129
f 74/82/130 75/162/130 41/83/130
f 63/85/131 24/154/131 66/57/131
f 16/51/132 65/176/132 83/87/132
f 59/88/133 23/140/133 62/8/133
f 28/89/134 10/158/134 59/88/134
f 55/18/135 22/17/135 58/50/135
f 37/91/136 94/94/136 46/92/136
f 37/91/137 19/127/137 55/93/137
f 33/95/138 80/10/138 67/12/138
f 21/97/139 54/15/139 93/6/139
f 38/5/140 20/141/140 51/98/140
f 35/99/141 17/177/141 53/100/141
f 1/102/142 40/178/142 76/103/142
f 50/105/143 6/179/143 35/99/143
f 58/106/144 87/132/144 34/107/144
f 91/73/145 47/111/145 8/109/145
f 53/100/146 17/177/146 47/111/146
f 10/112/147 28/180/147 75/113/147
f 53/100/148 91/73/148 52/75/148
f 73/115/149 76/159/149 72/116/149
f 90/13/150 52/75/150 14/74/150
f 83/30/151 63/54/151 18/119/151
f 90/13/152 54/15/152 21/97/152
f 27/120/153 9/181/153 57/121/153
f 1/102/154 27/104/154 89/122/154
f 88/124/155 31/156/155 13/125/155
f 19/127/156 49/123/156 89/122/156
f 3/22/157 31/156/157 88/124/157
f 39/40/158 88/168/158 57/23/158
f 43/129/159 13/182/159 69/130/159
f 56/126/160 13/125/160 43/27/160
f 87/132/161 58/106/161 22/25/161
f 19/133/162 37/138/162 85/134/162
f 19/133/163 61/135/163 86/33/163
f 36/137/164 18/175/164 60/80/164
f 37/138/165 5/183/165 36/137/165
f 84/9/166 48/81/166 6/139/166
f 84/9/167 62/8/167 23/140/167
f 50/105/168 92/101/168 51/98/168
f 65/142/169 16/108/169 34/107/169
f 82/144/170 33/26/170 15/78/170
f 45/59/171 97/60/171 32/61/171
f 7/147/172 33/26/172 82/144/172
f 45/79/173 8/184/173 47/149/173
f 81/43/174 66/45/174 24/150/174
f 69/130/175 13/182/175 31/152/175
f 83/87/176 65/176/176 24/154/176
f 79/153/177 30/185/177 12/71/177
f 31/156/178 3/22/178 30/3/178
f 42/72/179 4/186/179 44/47/179
f 78/70/180 70/46/180 25/11/180
f 10/158/181 40/34/181 86/33/181
f 73/115/182 9/181/182 27/120/182
f 76/103/183 40/178/183 10/112/183
f 92/101/184 53/100/184 21/97/184
f 75/113/185 28/180/185 2/160/185
f 74/82/186 26/117/186 72/116/186
f 69/130/187 79/153/187 68/155/187
f 65/142/188 82/143/188 64/151/188
f 48/53/189 96/55/189 35/163/189
f 85/134/190 60/80/190 23/140/190
f 98/62/191 29/187/191 4/165/191
f 61/135/192 23/140/192 59/88/192
