# Blender v2.79 (sub 0) OBJ File: 'tree.blend'
# www.blender.org
mtllib tree.mtl
v 0.000000 0.000000 -1.000000
v 0.000000 7.409080 -1.000000
v 0.707107 0.000000 -0.707107
v 0.707107 7.409080 -0.707107
v 1.000000 0.000000 0.000000
v 1.000000 7.409080 0.000000
v 0.707107 0.000000 0.707107
v 0.707107 7.409080 0.707107
v -0.000000 0.000000 1.000000
v -0.000000 7.409080 1.000000
v -0.707107 0.000000 0.707107
v -0.707107 7.409080 0.707107
v -1.000000 0.000000 -0.000000
v -1.000000 7.409080 -0.000000
v -0.707107 0.000000 -0.707107
v -0.707107 7.409080 -0.707107
v 0.000000 7.849961 -3.902341
v 2.759372 7.849961 -2.759372
v 3.902341 7.849961 0.000000
v 2.759372 7.849961 2.759372
v -0.000000 7.849961 3.902341
v -2.759372 7.849961 2.759371
v -3.902341 7.849961 -0.000000
v -2.759372 7.849961 -2.759371
v 0.000000 8.584763 -4.371914
v 3.091410 8.584763 -3.091410
v 4.371914 8.584763 0.000000
v 3.091410 8.584763 3.091410
v -0.000000 8.584763 4.371914
v -3.091410 8.584763 3.091409
v -4.371913 8.584763 -0.000000
v -3.091410 8.584763 -3.091409
v 0.000000 10.091105 -4.371914
v 3.091410 10.091105 -3.091410
v 4.371914 10.091105 0.000000
v 3.091410 10.091105 3.091410
v -0.000000 10.091105 4.371914
v -3.091410 10.091105 3.091409
v -4.371913 10.091105 -0.000000
v -3.091410 10.091105 -3.091409
v -0.000000 11.064717 -4.009022
v 2.834807 11.064717 -2.834807
v 4.009023 11.064717 0.000000
v 2.834807 11.064717 2.834807
v -0.000000 11.064717 4.009022
v -2.834807 11.064717 2.834806
v -4.009022 11.064717 -0.000000
v -2.834807 11.064717 -2.834806
v -0.000000 11.817889 -4.170985
v 2.949332 11.817889 -2.949332
v 4.170986 11.817889 0.000000
v 2.949332 11.817889 2.949332
v -0.000000 11.817889 4.170985
v -2.949333 11.817889 2.949332
v -4.170985 11.817889 -0.000000
v -2.949333 11.817889 -2.949332
v -0.000000 13.177272 -3.767986
v 2.664369 13.177272 -2.664369
v 3.767986 13.177272 0.000000
v 2.664369 13.177272 2.664369
v -0.000000 13.177272 3.767986
v -2.664369 13.177272 2.664368
v -3.767985 13.177272 -0.000000
v -2.664369 13.177272 -2.664368
v 0.000000 14.205994 -3.883266
v 2.745884 14.205994 -2.745884
v 3.883266 14.205994 0.000000
v 2.745884 14.205994 2.745884
v -0.000000 14.205994 3.883266
v -2.745884 14.205994 2.745883
v -3.883265 14.205994 -0.000000
v -2.745884 14.205994 -2.745883
v 0.000000 16.483879 -3.336676
v 2.359387 16.483879 -2.359387
v 3.336677 16.483879 0.000000
v 2.359387 16.483879 2.359387
v -0.000000 16.483879 3.336676
v -2.359387 16.483879 2.359386
v -3.336676 16.483879 -0.000000
v -2.359387 16.483879 -2.359386
v -0.000000 18.449471 -1.472992
v 1.041563 18.449471 -1.041563
v 1.472992 18.449471 0.000000
v 1.041563 18.449471 1.041563
v -0.000000 18.449471 1.472992
v -1.041563 18.449471 1.041563
v -1.472992 18.449471 -0.000000
v -1.041563 18.449471 -1.041563
v -0.000000 19.129164 -0.356481
v 0.252070 19.129164 -0.252070
v 0.356481 19.129164 0.000000
v 0.252070 19.129164 0.252070
v -0.000000 19.129164 0.356481
v -0.252070 19.129164 0.252070
v -0.356481 19.129164 -0.000000
v -0.252070 19.129164 -0.252070
vt 0.491338 0.243150
vt 0.370597 0.004651
vt 0.491338 0.004651
vt 0.370597 0.243150
vt 0.249856 0.004651
vt 0.249856 0.243150
vt 0.129115 0.004651
vt 0.129115 0.243150
vt 0.008374 0.004651
vt 0.974303 0.243150
vt 0.853562 0.004651
vt 0.974303 0.004651
vt 0.853562 0.243150
vt 0.732821 0.004651
vt 0.063245 0.256836
vt 0.972367 0.364240
vt 0.063245 0.364240
vt 0.732821 0.243150
vt 0.612080 0.004651
vt 0.612080 0.243150
vt 0.818182 0.000000
vt 0.966078 0.371623
vt 0.056955 0.466939
vt 0.056955 0.371623
vt 0.970452 0.259297
vt 0.061329 0.366701
vt 0.061329 0.259297
vt 0.949946 0.259297
vt 0.040824 0.366701
vt 0.040824 0.259297
vt 0.938187 0.259297
vt 0.029064 0.366701
vt 0.029064 0.259297
vt 1.006270 0.256836
vt 0.097148 0.364240
vt 0.097148 0.256836
vt 0.943657 0.259297
vt 0.034535 0.366701
vt 0.034535 0.259297
vt 0.966078 0.264218
vt 0.056955 0.264218
vt 0.954319 0.259297
vt 0.045197 0.366701
vt 0.045197 0.259297
vt 0.970452 0.462018
vt 0.061329 0.537933
vt 0.061329 0.462018
vt 0.943657 0.366701
vt 0.034535 0.462018
vt 1.006270 0.364240
vt 0.097148 0.459557
vt 0.954319 0.366701
vt 0.045197 0.462018
vt 0.063245 0.459557
vt 0.949946 0.366701
vt 0.040824 0.462018
vt 0.970452 0.366701
vt 0.938187 0.366701
vt 0.029064 0.462018
vt 0.063245 0.535472
vt 0.972367 0.584540
vt 0.063245 0.584540
vt 0.938187 0.462018
vt 0.029064 0.537933
vt 0.966078 0.466939
vt 0.056955 0.542855
vt 0.943657 0.462018
vt 0.034535 0.537933
vt 1.006270 0.459557
vt 0.097148 0.535472
vt 0.954319 0.462018
vt 0.045197 0.537933
vt 0.972367 0.459557
vt 0.949946 0.462018
vt 0.040824 0.537933
vt 1.006270 0.584540
vt 0.097148 0.622497
vt 0.097148 0.584540
vt 0.949946 0.537933
vt 0.040824 0.587000
vt 0.970452 0.537933
vt 0.061329 0.587000
vt 0.938187 0.537933
vt 0.029064 0.587000
vt 0.966078 0.542855
vt 0.056955 0.591922
vt 0.943657 0.537933
vt 0.034535 0.587000
vt 1.006270 0.535472
vt 0.954319 0.537933
vt 0.045197 0.587000
vt 0.938187 0.624958
vt 0.029064 0.693467
vt 0.029064 0.624958
vt 0.954319 0.587000
vt 0.045197 0.624958
vt 0.063245 0.622497
vt 0.949946 0.587000
vt 0.040824 0.624958
vt 0.970452 0.587000
vt 0.061329 0.624958
vt 0.938187 0.587000
vt 0.966078 0.591922
vt 0.056955 0.629880
vt 0.943657 0.587000
vt 0.034535 0.624958
vt 0.970452 0.693467
vt 0.061330 0.745312
vt 0.061329 0.693467
vt 0.966078 0.629880
vt 0.056955 0.698389
vt 0.943657 0.624958
vt 0.034535 0.693467
vt 1.006270 0.622497
vt 0.097148 0.691006
vt 0.954319 0.624958
vt 0.045197 0.693467
vt 0.972367 0.691006
vt 0.063245 0.691006
vt 0.949946 0.624958
vt 0.040824 0.693467
vt 0.970452 0.624958
vt 0.045197 0.745312
vt 0.954319 0.860111
vt 0.045197 0.860111
vt 0.938187 0.693467
vt 0.029064 0.745312
vt 0.966078 0.698389
vt 0.056955 0.750233
vt 0.943657 0.693467
vt 0.034535 0.745312
vt 1.006270 0.691006
vt 0.097148 0.742851
vt 0.954319 0.693467
vt 0.063245 0.742851
vt 0.949946 0.745312
vt 0.040824 0.745312
vt 0.943657 0.860111
vt 0.034535 0.959171
vt 0.034535 0.860111
vt 0.972367 0.742851
vt 0.063245 0.857650
vt 0.040824 0.860111
vt 0.970452 0.745312
vt 0.061329 0.860111
vt 0.938187 0.745312
vt 0.029064 0.860111
vt 0.966078 0.750233
vt 0.056955 0.865032
vt 0.943657 0.745312
vt 1.006270 0.742851
vt 0.097148 0.857650
vt 0.970452 0.959171
vt 0.061330 0.993426
vt 0.061329 0.959171
vt 1.006270 0.857650
vt 0.097148 0.956710
vt 0.954319 0.959171
vt 0.045197 0.959171
vt 0.972367 0.857650
vt 0.063245 0.956710
vt 0.949946 0.860111
vt 0.040824 0.959171
vt 0.970452 0.860111
vt 0.938187 0.860111
vt 0.029064 0.959171
vt 0.966078 0.865032
vt 0.056955 0.964093
vt 0.045197 0.993426
vt 0.558365 0.819100
vt 0.454635 0.939167
vt 0.938187 0.959171
vt 0.029064 0.993426
vt 0.966078 0.964093
vt 0.056955 0.998347
vt 0.943657 0.959171
vt 0.034535 0.993426
vt 1.006270 0.990965
vt 0.097148 0.990965
vt 0.954319 0.993426
vt 0.091678 0.954250
vt 1.000801 0.988504
vt 0.091678 0.988504
vt 0.949946 0.959171
vt 0.040824 0.993426
vt 0.008374 0.243150
vt 0.972367 0.256836
vt 0.909091 0.000000
vt 0.972367 0.535472
vt 0.972367 0.622497
vt 0.949946 0.693467
vt 0.954319 0.745312
vt 0.970452 0.993426
vt 1.006270 0.956710
vt 0.972367 0.956710
vt 0.574627 0.770691
vt 0.350977 0.668162
vt 0.358716 0.895435
vt 0.717733 0.595339
vt 0.938187 0.993426
vt 0.966078 0.998347
vt 0.943657 0.993426
vt 1.000801 0.954250
vt 0.949946 0.993426
vn 0.3827 0.0000 -0.9239
vn 0.9239 0.0000 -0.3827
vn 0.9239 0.0000 0.3827
vn 0.3827 0.0000 0.9239
vn -0.3827 0.0000 0.9239
vn -0.9239 0.0000 0.3827
vn 0.0621 -0.9868 0.1499
vn -0.9239 0.0000 -0.3827
vn -0.3827 0.0000 -0.9239
vn 0.0000 -1.0000 0.0000
vn 0.7956 -0.5084 0.3295
vn -0.1499 -0.9868 -0.0621
vn 0.1499 -0.9868 -0.0621
vn -0.0621 -0.9868 0.1499
vn -0.0621 -0.9868 -0.1499
vn 0.0621 -0.9868 -0.1499
vn 0.1499 -0.9868 0.0621
vn -0.1499 -0.9868 0.0621
vn 0.3295 -0.5084 -0.7956
vn -0.3295 -0.5084 -0.7956
vn -0.7956 -0.5084 0.3295
vn 0.3295 -0.5084 0.7956
vn 0.7956 -0.5084 -0.3295
vn -0.7956 -0.5084 -0.3295
vn -0.3295 -0.5084 0.7956
vn 0.3618 0.3256 0.8735
vn -0.3753 -0.1949 -0.9062
vn 0.8735 0.3256 -0.3618
vn -0.8735 0.3256 -0.3618
vn -0.3618 0.3256 0.8735
vn 0.8735 0.3256 0.3618
vn 0.3618 0.3256 -0.8735
vn -0.3618 0.3256 -0.8735
vn -0.8735 0.3256 0.3618
vn -0.3691 0.2642 0.8911
vn -0.9062 -0.1949 0.3753
vn 0.3753 -0.1949 0.9062
vn 0.9062 -0.1949 -0.3753
vn -0.9062 -0.1949 -0.3753
vn -0.3753 -0.1949 0.9062
vn 0.9062 -0.1949 0.3753
vn 0.3753 -0.1949 -0.9062
vn -0.9190 -0.1030 -0.3806
vn 0.8911 0.2642 0.3691
vn 0.3691 0.2642 -0.8911
vn -0.3691 0.2642 -0.8911
vn -0.8911 0.2642 0.3691
vn 0.3691 0.2642 0.8911
vn 0.8911 0.2642 -0.3691
vn -0.8911 0.2642 -0.3691
vn -0.9020 0.2164 0.3736
vn -0.3806 -0.1030 0.9190
vn 0.9190 -0.1030 0.3806
vn 0.3806 -0.1030 -0.9190
vn -0.3806 -0.1030 -0.9190
vn -0.9190 -0.1030 0.3806
vn 0.3806 -0.1030 0.9190
vn 0.9190 -0.1030 -0.3806
vn 0.2879 0.6589 -0.6950
vn 0.3736 0.2164 0.9020
vn 0.9020 0.2164 -0.3736
vn -0.9020 0.2164 -0.3736
vn -0.3736 0.2164 0.9020
vn 0.9020 0.2164 0.3736
vn 0.3736 0.2164 -0.9020
vn -0.3736 0.2164 -0.9020
vn -0.5083 0.8350 -0.2106
vn -0.2879 0.6589 -0.6950
vn -0.6950 0.6589 0.2879
vn 0.2879 0.6589 0.6950
vn 0.6950 0.6589 -0.2879
vn -0.6950 0.6589 -0.2879
vn -0.2879 0.6589 0.6950
vn 0.6950 0.6589 0.2879
vn 0.0000 1.0000 0.0000
vn -0.2106 0.8350 0.5083
vn 0.5083 0.8350 0.2106
vn 0.2106 0.8350 -0.5083
vn -0.2106 0.8350 -0.5083
vn -0.5083 0.8350 0.2106
vn 0.2106 0.8350 0.5083
vn 0.5083 0.8350 -0.2106
usemtl Material.001
s off
f 2/1/1 3/2/1 1/3/1
f 4/4/2 5/5/2 3/2/2
f 6/6/3 7/7/3 5/5/3
f 8/8/4 9/9/4 7/7/4
f 10/10/5 11/11/5 9/12/5
f 12/13/6 13/14/6 11/11/6
f 10/15/7 20/16/7 21/17/7
f 14/18/8 15/19/8 13/14/8
f 16/20/9 1/3/9 15/19/9
f 15/19/10 3/2/10 7/21/10
f 19/22/11 28/23/11 20/24/11
f 14/25/12 24/26/12 16/27/12
f 4/28/13 19/29/13 6/30/13
f 10/31/14 22/32/14 12/33/14
f 16/34/15 17/35/15 2/36/15
f 2/37/16 18/38/16 4/39/16
f 6/40/17 20/24/17 8/41/17
f 12/42/18 23/43/18 14/44/18
f 31/45/8 40/46/8 32/47/8
f 17/48/19 26/49/19 18/38/19
f 24/50/20 25/51/20 17/35/20
f 22/52/21 31/53/21 23/43/21
f 20/16/22 29/54/22 21/17/22
f 18/55/23 27/56/23 19/29/23
f 23/57/24 32/47/24 24/26/24
f 21/58/25 30/59/25 22/32/25
f 37/60/26 44/61/26 45/62/26
f 29/63/5 38/64/5 30/59/5
f 27/65/3 36/66/3 28/23/3
f 25/67/1 34/68/1 26/49/1
f 32/69/9 33/70/9 25/51/9
f 30/71/6 39/72/6 31/53/6
f 28/73/4 37/60/4 29/54/4
f 26/74/2 35/75/2 27/56/2
f 48/76/27 49/77/27 41/78/27
f 34/79/28 43/80/28 35/75/28
f 39/81/29 48/82/29 40/46/29
f 37/83/30 46/84/30 38/64/30
f 35/85/31 44/86/31 36/66/31
f 33/87/32 42/88/32 34/68/32
f 40/89/33 41/78/33 33/70/33
f 38/90/34 47/91/34 39/72/34
f 53/92/35 62/93/35 54/94/35
f 46/95/36 55/96/36 47/91/36
f 44/61/37 53/97/37 45/62/37
f 42/98/38 51/99/38 43/80/38
f 47/100/39 56/101/39 48/82/39
f 45/102/40 54/94/40 46/84/40
f 43/103/41 52/104/41 44/86/41
f 41/105/42 50/106/42 42/88/42
f 63/107/43 72/108/43 64/109/43
f 51/110/44 60/111/44 52/104/44
f 49/112/45 58/113/45 50/106/45
f 56/114/46 57/115/46 49/77/46
f 54/116/47 63/117/47 55/96/47
f 53/97/48 60/118/48 61/119/48
f 50/120/49 59/121/49 51/99/49
f 55/122/50 64/109/50 56/101/50
f 71/123/51 78/124/51 79/125/51
f 61/126/52 70/127/52 62/93/52
f 59/128/53 68/129/53 60/111/53
f 57/130/54 66/131/54 58/113/54
f 64/132/55 65/133/55 57/115/55
f 62/134/56 71/123/56 63/117/56
f 60/118/57 69/135/57 61/119/57
f 59/121/58 66/136/58 67/137/58
f 73/138/59 82/139/59 74/140/59
f 68/141/60 77/142/60 69/135/60
f 66/136/61 75/143/61 67/137/61
f 71/144/62 80/145/62 72/108/62
f 69/146/63 78/147/63 70/127/63
f 67/148/64 76/149/64 68/129/64
f 65/150/65 74/140/65 66/131/65
f 72/151/66 73/152/66 65/133/66
f 87/153/67 96/154/67 88/155/67
f 80/156/68 81/157/68 73/152/68
f 79/125/69 86/158/69 87/159/69
f 76/160/70 85/161/70 77/142/70
f 74/162/71 83/163/71 75/143/71
f 79/164/72 88/155/72 80/145/72
f 77/165/73 86/166/73 78/147/73
f 75/167/74 84/168/74 76/149/74
f 95/169/75 93/170/75 91/171/75
f 85/172/76 94/173/76 86/166/76
f 83/174/77 92/175/77 84/168/77
f 81/176/78 90/177/78 82/139/78
f 81/157/79 96/178/79 89/179/79
f 87/159/80 94/180/80 95/169/80
f 85/181/81 92/182/81 93/183/81
f 82/184/82 91/185/82 83/163/82
f 2/1/1 4/4/1 3/2/1
f 4/4/2 6/6/2 5/5/2
f 6/6/3 8/8/3 7/7/3
f 8/8/4 10/186/4 9/9/4
f 10/10/5 12/13/5 11/11/5
f 12/13/6 14/18/6 13/14/6
f 10/15/7 8/187/7 20/16/7
f 14/18/8 16/20/8 15/19/8
f 16/20/9 2/1/9 1/3/9
f 15/19/10 1/3/10 3/2/10
f 3/2/10 5/188/10 7/21/10
f 7/21/10 9/12/10 11/11/10
f 11/11/10 13/14/10 7/21/10
f 13/14/10 15/19/10 7/21/10
f 19/22/11 27/65/11 28/23/11
f 14/25/12 23/57/12 24/26/12
f 4/28/13 18/55/13 19/29/13
f 10/31/14 21/58/14 22/32/14
f 16/34/15 24/50/15 17/35/15
f 2/37/16 17/48/16 18/38/16
f 6/40/17 19/22/17 20/24/17
f 12/42/18 22/52/18 23/43/18
f 31/45/8 39/81/8 40/46/8
f 17/48/19 25/67/19 26/49/19
f 24/50/20 32/69/20 25/51/20
f 22/52/21 30/71/21 31/53/21
f 20/16/22 28/73/22 29/54/22
f 18/55/23 26/74/23 27/56/23
f 23/57/24 31/45/24 32/47/24
f 21/58/25 29/63/25 30/59/25
f 37/60/26 36/189/26 44/61/26
f 29/63/5 37/83/5 38/64/5
f 27/65/3 35/85/3 36/66/3
f 25/67/1 33/87/1 34/68/1
f 32/69/9 40/89/9 33/70/9
f 30/71/6 38/90/6 39/72/6
f 28/73/4 36/189/4 37/60/4
f 26/74/2 34/79/2 35/75/2
f 48/76/27 56/114/27 49/77/27
f 34/79/28 42/98/28 43/80/28
f 39/81/29 47/100/29 48/82/29
f 37/83/30 45/102/30 46/84/30
f 35/85/31 43/103/31 44/86/31
f 33/87/32 41/105/32 42/88/32
f 40/89/33 48/76/33 41/78/33
f 38/90/34 46/95/34 47/91/34
f 53/92/35 61/126/35 62/93/35
f 46/95/36 54/116/36 55/96/36
f 44/61/37 52/190/37 53/97/37
f 42/98/38 50/120/38 51/99/38
f 47/100/39 55/122/39 56/101/39
f 45/102/40 53/92/40 54/94/40
f 43/103/41 51/110/41 52/104/41
f 41/105/42 49/112/42 50/106/42
f 63/107/43 71/144/43 72/108/43
f 51/110/44 59/128/44 60/111/44
f 49/112/45 57/130/45 58/113/45
f 56/114/46 64/132/46 57/115/46
f 54/116/47 62/134/47 63/117/47
f 53/97/48 52/190/48 60/118/48
f 50/120/49 58/191/49 59/121/49
f 55/122/50 63/107/50 64/109/50
f 71/123/51 70/192/51 78/124/51
f 61/126/52 69/146/52 70/127/52
f 59/128/53 67/148/53 68/129/53
f 57/130/54 65/150/54 66/131/54
f 64/132/55 72/151/55 65/133/55
f 62/134/56 70/192/56 71/123/56
f 60/118/57 68/141/57 69/135/57
f 59/121/58 58/191/58 66/136/58
f 73/138/59 81/176/59 82/139/59
f 68/141/60 76/160/60 77/142/60
f 66/136/61 74/162/61 75/143/61
f 71/144/62 79/164/62 80/145/62
f 69/146/63 77/165/63 78/147/63
f 67/148/64 75/167/64 76/149/64
f 65/150/65 73/138/65 74/140/65
f 72/151/66 80/156/66 73/152/66
f 87/153/67 95/193/67 96/154/67
f 80/156/68 88/194/68 81/157/68
f 79/125/69 78/124/69 86/158/69
f 76/160/70 84/195/70 85/161/70
f 74/162/71 82/184/71 83/163/71
f 79/164/72 87/153/72 88/155/72
f 77/165/73 85/172/73 86/166/73
f 75/167/74 83/174/74 84/168/74
f 91/171/75 90/196/75 89/197/75
f 89/197/75 96/198/75 95/169/75
f 95/169/75 94/180/75 93/170/75
f 93/170/75 92/199/75 91/171/75
f 91/171/75 89/197/75 95/169/75
f 85/172/76 93/200/76 94/173/76
f 83/174/77 91/201/77 92/175/77
f 81/176/78 89/202/78 90/177/78
f 81/157/79 88/194/79 96/178/79
f 87/159/80 86/158/80 94/180/80
f 85/181/81 84/203/81 92/182/81
f 82/184/82 90/204/82 91/185/82
