# Blender v2.79 (sub 0) OBJ File: 'crate.blend'
# www.blender.org
mtllib crate.mtl
v 1.000000 0.000000 -1.000000
v 1.000000 0.000000 1.000000
v -1.000000 0.000000 1.000000
v -1.000000 0.000000 -1.000000
v 1.000000 2.000000 -0.999999
v 0.999999 2.000000 1.000001
v -1.000000 2.000000 1.000000
v -1.000000 2.000000 -1.000000
vt 0.000000 1.000000
vt 0.500000 0.000000
vt 0.500000 1.000000
vt 0.500000 -0.000000
vt 1.000000 1.000000
vt 0.500000 1.000000
vt 0.500000 0.000000
vt -0.000000 0.000000
vt 0.500000 1.000000
vt -0.000000 0.000000
vt 0.500000 -0.000000
vt 0.500000 1.000000
vt 0.000000 1.000000
vt 0.000000 1.000000
vt 1.000000 -0.000000
vt 0.000000 1.000000
vt 0.500000 0.000000
vt 0.000000 0.000000
vn 0.0000 -1.0000 0.0000
vn 0.0000 1.0000 0.0000
vn 1.0000 -0.0000 0.0000
vn 0.0000 -0.0000 1.0000
vn -1.0000 -0.0000 -0.0000
vn 0.0000 0.0000 -1.0000
usemtl Material.001
s off
f 2/1/1 4/2/1 1/3/1
f 8/4/2 6/5/2 5/6/2
f 5/7/3 2/1/3 1/8/3
f 6/9/4 3/10/4 2/11/4
f 3/10/5 8/12/5 4/13/5
f 1/14/6 8/4/6 5/6/6
f 2/1/1 3/10/1 4/2/1
f 8/4/2 7/15/2 6/5/2
f 5/7/3 6/9/3 2/1/3
f 6/9/4 7/16/4 3/10/4
f 3/10/5 7/17/5 8/12/5
f 1/14/6 4/18/6 8/4/6
