# Blender v2.79 (sub 0) OBJ File: 'path.blend'
# www.blender.org
mtllib path.mtl
v -0.577482 -0.024447 2.032755
v 1.891564 -0.024447 0.880090
v -0.907416 -0.024447 -1.274927
v 1.156641 -0.024447 -1.293644
v -0.158269 -0.024447 -2.821321
v 1.337719 -0.024447 -2.999750
v -0.391413 -0.024447 -4.508666
v 0.925691 -0.024447 -5.056325
v -1.594445 -0.024447 -6.585838
v 0.012800 -0.024447 -6.691381
v -2.000664 -0.024447 -8.817853
v -0.495010 -0.024447 -9.127378
v -2.186985 -0.024447 -11.444094
v -0.685272 -0.024447 -11.472143
v -1.916439 -0.024447 -13.924232
v -0.268163 -0.024447 -13.922880
v -0.855947 -0.024447 -15.665788
v 0.810719 -0.024447 -15.665788
v -0.267296 -0.024447 -17.442158
v 1.409583 -0.024447 -17.482586
v -0.593748 -0.024447 -18.879162
v 1.114994 -0.024447 -19.285217
v -2.310188 -0.024447 -20.173599
v -1.004113 -0.024447 -20.997818
v -5.166569 -0.024447 -21.350271
v -3.982926 -0.024447 -22.478086
v -7.319318 -0.024447 -23.452099
v -5.808318 -0.024447 -24.092138
v -8.786821 -0.024447 -26.886890
v -5.736765 -0.024447 -27.010437
v -1.810334 -0.024447 0.696705
v 1.057023 -0.024447 1.749560
v 1.769470 -0.024447 -0.119707
v 0.000000 -0.024447 -0.958333
v -0.195531 -0.024447 0.333323
v -1.208423 -0.024447 1.490481
v 1.664081 -0.024447 1.461831
v 1.441411 -0.024447 -0.644610
v -1.709171 -0.024447 -0.378729
v 0.361772 -0.024447 2.033731
v 1.813771 -0.024447 0.361308
v -1.018437 -0.024447 0.318821
v 0.902678 -0.024447 0.244863
v 0.930291 -0.024447 0.838531
v -0.417917 -0.024447 1.239104
v -0.926222 -0.024447 -0.478979
v 0.561828 -0.024447 -0.491895
v -0.874732 -0.024447 1.804100
v 1.807160 -0.024447 1.158259
v 1.267426 -0.024447 -0.916357
v -0.579255 -0.024447 -2.019488
v 1.352349 -0.024447 -2.093562
v -1.826504 -0.024447 0.162132
v 1.805697 -0.024447 0.118603
v -1.540055 -0.024447 1.118800
v 1.620209 -0.024447 -0.378166
v -1.332960 -0.024447 -0.810047
v -0.145517 -0.024447 2.058706
v 1.856633 -0.024447 0.636908
v 1.215070 -0.024447 -0.255789
v -1.453193 -0.024447 0.035867
v -1.056712 -0.024447 -0.783463
v -0.463755 -0.024447 1.749876
v -1.174804 -0.024447 0.950776
v 1.609979 -0.024447 0.893452
v 1.393891 -0.024447 0.320163
v -7.006904 -0.024447 -25.297565
v -5.671034 -0.024447 -22.758091
v -3.114150 -0.024447 -21.239296
v -0.578859 -0.024447 -19.848278
v 0.523569 -0.024447 -18.285316
v 0.333765 -0.024447 -16.565920
v -0.570041 -0.024447 -14.824440
v -1.322846 -0.024447 -12.725742
v -1.372079 -0.024447 -10.208183
v -1.060155 -0.024447 -7.776829
v -0.258324 -0.024447 -5.690872
v 0.501296 -0.024447 -3.841079
v 0.918596 -0.024447 -0.840740
v 0.379749 -0.024447 -2.263790
vt 0.715302 0.196883
vt 0.419450 0.140043
vt 0.332770 0.000000
vt 0.534026 0.291722
vt 0.718742 0.486214
vt 0.423631 0.596594
vt 0.883855 0.000000
vt 0.907067 0.211612
vt 0.260209 0.353917
vt 0.468657 0.572085
vt 0.000000 0.745256
vt 0.199773 0.000000
vt 0.486171 0.274448
vt 0.000000 0.499986
vt 0.417531 0.756799
vt 0.052118 0.978147
vt 0.000000 0.292410
vt 0.492613 0.543807
vt 0.360216 0.751399
vt 0.000000 0.000000
vt 0.526905 0.261747
vt 0.217057 0.483722
vt 0.559292 0.722865
vt 0.017254 0.860053
vt 0.518198 0.197861
vt 0.502983 0.570228
vt 0.000000 0.648499
vt 0.739416 0.000000
vt 0.555989 0.429712
vt 0.125915 0.415692
vt 0.675575 0.000000
vt 0.498415 0.359444
vt 0.000000 0.510936
vt 0.401627 0.000000
vt 0.476323 0.515548
vt 0.000000 0.933897
vt 1.000000 0.343414
vt 0.078738 0.183502
vt 0.176526 0.217154
vt 0.005348 0.266400
vt 0.924393 0.232310
vt 0.990160 0.283263
vt 0.978129 0.337575
vt 0.865275 0.345112
vt 0.168510 0.110633
vt 0.741730 0.242207
vt 0.939993 0.120252
vt 0.130735 0.564319
vt 0.030498 0.478707
vt 0.204983 0.559455
vt 0.240604 0.499566
vt 0.100032 0.397268
vt 0.217337 0.342045
vt 0.816162 0.458491
vt 0.924749 0.483194
vt 0.876224 0.535512
vt 0.735430 0.573484
vt 0.798516 0.663162
vt 0.488481 0.595415
vt 0.965326 0.432410
vt 0.438391 0.340320
vt 0.380363 0.161317
vt 0.975505 0.385446
vt 0.369012 0.060487
vt 0.591277 0.005627
vt 0.640261 0.504170
vt 0.733197 0.359290
vt 0.338997 0.004522
vt 0.258728 0.049221
vt 1.000000 0.235335
vt 0.977852 0.180339
vt 0.244159 0.656620
vt 0.455069 0.000000
vt 0.000000 0.371842
vt 0.828982 0.588883
vt 0.430619 0.706309
vt 0.053755 1.000000
vt 0.356497 0.931182
vt 0.000000 1.000000
vt 0.333742 0.168082
vt 0.807866 0.922908
vt 0.000000 1.000000
vt 1.000000 0.205953
vt 0.671013 1.000000
vt 1.000000 0.399698
vt 1.000000 0.317110
vt 1.000000 0.525770
vt 1.000000 0.389892
vt 1.000000 0.780937
vt 0.792684 1.000000
vt 0.357934 1.000000
vt 0.632760 0.321280
vt 0.803109 1.000000
vt 0.808745 0.525499
vt 0.779492 0.031100
vt 0.686200 0.818975
vt 0.245588 1.000000
vt 1.000000 0.392675
vt 0.941009 1.000000
vt 0.825284 0.713363
vt 0.439399 0.813990
vt 1.000000 0.079421
vt 0.588023 0.853484
vt 0.849578 0.821244
vt 0.843944 1.000000
vt 0.777483 0.062650
vt 0.502526 1.000000
vt 1.000000 0.000000
vt 0.850518 0.000000
vt 0.260121 0.000000
vn 0.0000 1.0000 -0.0000
usemtl Material.001
s off
f 80/1/1 51/2/1 3/3/1
f 5/4/1 78/5/1 7/6/1
f 7/7/1 77/8/1 9/9/1
f 9/9/1 76/10/1 11/11/1
f 11/12/1 75/13/1 13/14/1
f 13/14/1 74/15/1 15/16/1
f 15/17/1 73/18/1 17/19/1
f 17/20/1 72/21/1 19/22/1
f 19/22/1 71/23/1 21/24/1
f 21/25/1 70/26/1 23/27/1
f 23/28/1 69/29/1 25/30/1
f 25/31/1 68/32/1 27/33/1
f 27/34/1 67/35/1 29/36/1
f 5/4/1 80/1/1 6/37/1
f 55/38/1 64/39/1 31/40/1
f 65/41/1 59/42/1 41/43/1
f 66/44/1 65/41/1 41/43/1
f 55/38/1 36/45/1 64/39/1
f 65/41/1 44/46/1 37/47/1
f 57/48/1 39/49/1 62/50/1
f 46/51/1 61/52/1 42/53/1
f 60/54/1 56/55/1 38/56/1
f 79/57/1 60/54/1 38/56/1
f 79/57/1 4/58/1 34/59/1
f 60/54/1 66/44/1 33/60/1
f 35/61/1 34/59/1 46/51/1
f 64/39/1 45/62/1 42/53/1
f 41/43/1 54/63/1 66/44/1
f 45/62/1 63/64/1 40/65/1
f 31/40/1 42/53/1 61/52/1
f 33/60/1 56/55/1 60/54/1
f 60/54/1 47/66/1 43/67/1
f 1/68/1 63/64/1 48/69/1
f 48/69/1 63/64/1 36/45/1
f 44/46/1 66/44/1 43/67/1
f 2/70/1 65/41/1 49/71/1
f 34/59/1 3/72/1 62/50/1
f 37/47/1 49/71/1 65/41/1
f 58/73/1 40/65/1 63/64/1
f 45/62/1 36/45/1 63/64/1
f 53/74/1 31/40/1 61/52/1
f 79/57/1 50/75/1 4/58/1
f 53/74/1 61/52/1 39/49/1
f 27/33/1 28/76/1 67/77/1
f 25/30/1 26/78/1 68/79/1
f 23/80/1 24/81/1 69/82/1
f 28/83/1 30/84/1 67/35/1
f 21/25/1 22/85/1 70/26/1
f 26/86/1 28/76/1 68/32/1
f 19/22/1 20/87/1 71/23/1
f 24/88/1 26/78/1 69/29/1
f 17/19/1 18/89/1 72/90/1
f 22/85/1 24/91/1 70/26/1
f 15/17/1 16/92/1 73/18/1
f 20/87/1 22/93/1 71/23/1
f 13/14/1 14/94/1 74/15/1
f 18/95/1 20/87/1 72/21/1
f 11/11/1 12/96/1 75/97/1
f 16/92/1 18/89/1 73/18/1
f 9/9/1 10/98/1 76/10/1
f 14/94/1 16/99/1 74/15/1
f 7/6/1 8/100/1 77/101/1
f 12/102/1 14/94/1 75/13/1
f 6/37/1 8/100/1 78/5/1
f 66/44/1 54/63/1 33/60/1
f 80/103/1 34/59/1 4/58/1
f 80/103/1 52/104/1 6/105/1
f 44/46/1 45/62/1 32/106/1
f 29/36/1 67/35/1 30/84/1
f 38/56/1 50/75/1 79/57/1
f 42/53/1 45/62/1 35/61/1
f 57/48/1 62/50/1 3/72/1
f 44/46/1 43/67/1 35/61/1
f 46/51/1 39/49/1 61/52/1
f 32/106/1 37/47/1 44/46/1
f 5/4/1 6/37/1 78/5/1
f 46/51/1 42/53/1 35/61/1
f 35/61/1 43/67/1 47/66/1
f 34/59/1 62/50/1 46/51/1
f 79/57/1 34/59/1 47/66/1
f 45/62/1 40/65/1 32/106/1
f 8/100/1 10/107/1 77/101/1
f 10/98/1 12/96/1 76/10/1
f 80/1/1 5/4/1 51/2/1
f 66/44/1 44/46/1 65/41/1
f 79/57/1 47/66/1 60/54/1
f 60/54/1 43/67/1 66/44/1
f 35/61/1 47/66/1 34/59/1
f 31/40/1 64/39/1 42/53/1
f 1/68/1 58/73/1 63/64/1
f 2/70/1 59/42/1 65/41/1
f 45/62/1 64/39/1 36/45/1
f 27/33/1 68/32/1 28/76/1
f 25/30/1 69/29/1 26/78/1
f 23/80/1 70/108/1 24/81/1
f 21/25/1 71/109/1 22/85/1
f 19/22/1 72/21/1 20/87/1
f 17/19/1 73/18/1 18/89/1
f 15/17/1 74/110/1 16/92/1
f 13/14/1 75/13/1 14/94/1
f 11/11/1 76/10/1 12/96/1
f 9/9/1 77/8/1 10/98/1
f 7/6/1 78/5/1 8/100/1
f 80/103/1 3/72/1 34/59/1
f 80/103/1 4/58/1 52/104/1
f 44/46/1 35/61/1 45/62/1
f 46/51/1 62/50/1 39/49/1
