# Blender v2.79 (sub 0) OBJ File: 'hay.blend'
# www.blender.org
mtllib hay.mtl
v -1.400000 1.000000 -1.000000
v 1.400000 1.000000 -1.000000
v -1.400000 0.804910 -0.980785
v 1.400000 0.804910 -0.980785
v -1.400000 0.617316 -0.923880
v 1.400000 0.617317 -0.923880
v -1.400000 0.444430 -0.831470
v 1.400000 0.444430 -0.831470
v -1.400000 0.292893 -0.707107
v 1.400000 0.292893 -0.707107
v -1.400000 0.168530 -0.555570
v 1.400000 0.168530 -0.555570
v -1.400000 0.076120 -0.382683
v 1.400000 0.076121 -0.382683
v -1.400000 0.019215 -0.195090
v 1.400000 0.019215 -0.195090
v -1.400000 -0.000000 -0.000000
v 1.400000 0.000000 -0.000000
v -1.400000 0.019215 0.195090
v 1.400000 0.019215 0.195090
v -1.400000 0.076120 0.382683
v 1.400000 0.076121 0.382683
v -1.400000 0.168530 0.555570
v 1.400000 0.168530 0.555570
v -1.400000 0.292893 0.707107
v 1.400000 0.292893 0.707107
v -1.400000 0.444430 0.831470
v 1.400000 0.444430 0.831470
v -1.400000 0.617317 0.923880
v 1.400000 0.617317 0.923880
v -1.400000 0.804910 0.980785
v 1.400000 0.804910 0.980785
v -1.400000 1.000000 1.000000
v 1.400000 1.000000 1.000000
v -1.400000 1.195091 0.980785
v 1.400000 1.195091 0.980785
v -1.400000 1.382684 0.923879
v 1.400000 1.382684 0.923879
v -1.400000 1.555571 0.831469
v 1.400000 1.555571 0.831469
v -1.400000 1.707107 0.707106
v 1.400000 1.707107 0.707106
v -1.400000 1.831470 0.555570
v 1.400000 1.831470 0.555570
v -1.400000 1.923880 0.382683
v 1.400000 1.923880 0.382683
v -1.400000 1.980785 0.195089
v 1.400000 1.980786 0.195089
v -1.400000 2.000000 -0.000001
v 1.400000 2.000000 -0.000001
v -1.400000 1.980785 -0.195091
v 1.400000 1.980785 -0.195091
v -1.400000 1.923879 -0.382684
v 1.400000 1.923879 -0.382684
v -1.400000 1.831469 -0.555571
v 1.400000 1.831469 -0.555571
v -1.400000 1.707106 -0.707108
v 1.400000 1.707106 -0.707108
v -1.400000 1.555569 -0.831470
v 1.400000 1.555569 -0.831470
v -1.400000 1.382682 -0.923880
v 1.400000 1.382682 -0.923880
v -1.400000 1.195089 -0.980786
v 1.400000 1.195089 -0.980786
vt 0.011125 0.096082
vt 0.492081 0.055125
vt 0.490895 0.105163
vt 0.014712 0.051246
vt 0.496513 0.008774
vt 0.479055 0.065815
vt 0.031661 0.167540
vt 0.481371 0.172034
vt 0.495957 0.022018
vt 0.029129 0.136174
vt 0.018010 0.058477
vt 0.495628 0.039257
vt 0.016795 0.196068
vt 0.496230 0.085199
vt 0.017906 0.267813
vt 0.490353 0.135241
vt 0.012949 0.321642
vt 0.493490 0.173568
vt 0.011204 0.373852
vt 0.490745 0.255232
vt 0.020447 0.449684
vt 0.495103 0.327963
vt 0.012021 0.512119
vt 0.487805 0.405900
vt 0.019238 0.601508
vt 0.488911 0.470487
vt 0.024203 0.657417
vt 0.489085 0.563600
vt 0.018257 0.715617
vt 0.495312 0.645054
vt 0.019045 0.764036
vt 0.499870 0.713624
vt 0.023277 0.806416
vt 0.492687 0.762205
vt 0.025434 0.868616
vt 0.492281 0.796502
vt 0.017173 0.947529
vt 0.494543 0.867664
vt 0.020047 0.992543
vt 0.007792 0.980742
vt 0.490886 0.940664
vt 0.495258 0.988554
vt 0.015449 0.935758
vt 0.495951 0.885023
vt 0.016293 0.891093
vt 0.491999 0.848295
vt 0.014377 0.821917
vt 0.491531 0.808654
vt 0.014621 0.769076
vt 0.493206 0.758420
vt 0.017290 0.703260
vt 0.489682 0.698308
vt 0.015690 0.627460
vt 0.490686 0.625617
vt 0.012103 0.558864
vt 0.493841 0.542911
vt 0.008353 0.487955
vt 0.489056 0.445949
vt 0.010642 0.418710
vt 0.489779 0.373235
vt 0.008147 0.338826
vt 0.492945 0.286596
vt 0.012050 0.260928
vt 0.491437 0.202490
vt 0.991670 0.529717
vt 0.738624 0.977794
vt 0.503935 0.494089
vt 0.011745 0.202320
vt 0.488705 0.151002
vt 0.014735 0.148939
vt 0.931350 0.208553
vt 0.902703 0.869255
vt 0.533494 0.763898
vt 0.004561 0.006803
vt 0.054625 0.092326
vt 0.493623 0.959183
vt 0.760323 0.046013
vt 0.819635 0.058440
vt 0.872611 0.088294
vt 0.916119 0.134426
vt 0.949248 0.195065
vt 0.972456 0.267880
vt 0.986695 0.350073
vt 0.992880 0.438484
vt 0.983416 0.620266
vt 0.968193 0.706650
vt 0.945894 0.785550
vt 0.916395 0.853934
vt 0.879805 0.909175
vt 0.836799 0.949148
vt 0.788917 0.972318
vt 0.688928 0.965367
vt 0.642699 0.935513
vt 0.602060 0.889381
vt 0.568189 0.828742
vt 0.541500 0.755927
vt 0.521974 0.673734
vt 0.509469 0.585322
vt 0.505545 0.403541
vt 0.514771 0.317156
vt 0.532382 0.238256
vt 0.559351 0.169872
vt 0.596519 0.114632
vt 0.643930 0.074659
vt 0.699879 0.051489
vt 0.600535 0.103196
vt 0.639635 0.056385
vt 0.684114 0.026092
vt 0.731928 0.013482
vt 0.780317 0.019039
vt 0.826385 0.042550
vt 0.867764 0.083111
vt 0.902968 0.139164
vt 0.952804 0.288614
vt 0.967452 0.376269
vt 0.975393 0.468149
vt 0.976557 0.560724
vt 0.970606 0.650436
vt 0.956907 0.733838
vt 0.934578 0.807724
vt 0.860842 0.916066
vt 0.809872 0.946359
vt 0.752805 0.958969
vt 0.694649 0.953412
vt 0.640819 0.929901
vt 0.595203 0.889340
vt 0.559442 0.833287
vt 0.516549 0.683837
vt 0.507674 0.596182
vt 0.506124 0.504301
vt 0.511449 0.411726
vt 0.523480 0.322014
vt 0.542268 0.238613
vt 0.567946 0.164727
vn 0.0000 -0.0980 -0.9952
vn 0.0000 -0.2903 -0.9569
vn 0.0000 -0.4714 -0.8819
vn 0.0000 -0.6344 -0.7730
vn 0.0000 -0.7730 -0.6344
vn 0.0000 -0.8819 -0.4714
vn 0.0000 -0.9569 -0.2903
vn 0.0000 -0.9952 -0.0980
vn 0.0000 -0.9952 0.0980
vn 0.0000 -0.9569 0.2903
vn 0.0000 -0.8819 0.4714
vn 0.0000 -0.7730 0.6344
vn 0.0000 -0.6344 0.7730
vn 0.0000 -0.4714 0.8819
vn 0.0000 -0.2903 0.9569
vn 0.0000 -0.0980 0.9952
vn 0.0000 0.0980 0.9952
vn -0.0000 0.2903 0.9569
vn -0.0000 0.4714 0.8819
vn -0.0000 0.6344 0.7730
vn -0.0000 0.7730 0.6344
vn -0.0000 0.8819 0.4714
vn -0.0000 0.9569 0.2903
vn -0.0000 0.9952 0.0980
vn -0.0000 0.9952 -0.0980
vn -0.0000 0.9569 -0.2903
vn -0.0000 0.8819 -0.4714
vn -0.0000 0.7730 -0.6344
vn -0.0000 0.6344 -0.7730
vn -0.0000 0.4714 -0.8819
vn 1.0000 0.0000 -0.0000
vn -0.0000 0.2903 -0.9569
vn 0.0000 0.0980 -0.9952
vn -1.0000 -0.0000 -0.0000
usemtl Material.001
s off
f 2/1/1 3/2/1 1/3/1
f 4/4/2 5/5/2 3/2/2
f 6/6/3 7/7/3 5/8/3
f 8/9/4 9/10/4 7/11/4
f 10/12/5 11/13/5 9/10/5
f 12/14/6 13/15/6 11/13/6
f 14/16/7 15/17/7 13/15/7
f 16/18/8 17/19/8 15/17/8
f 18/20/9 19/21/9 17/19/9
f 20/22/10 21/23/10 19/21/10
f 22/24/11 23/25/11 21/23/11
f 24/26/12 25/27/12 23/25/12
f 26/28/13 27/29/13 25/27/13
f 28/30/14 29/31/14 27/29/14
f 30/32/15 31/33/15 29/31/15
f 32/34/16 33/35/16 31/33/16
f 34/36/17 35/37/17 33/35/17
f 36/38/18 37/39/18 35/37/18
f 38/40/19 39/41/19 37/42/19
f 40/43/20 41/44/20 39/41/20
f 42/45/21 43/46/21 41/44/21
f 44/47/22 45/48/22 43/46/22
f 46/49/23 47/50/23 45/48/23
f 48/51/24 49/52/24 47/50/24
f 50/53/25 51/54/25 49/52/25
f 52/55/26 53/56/26 51/54/26
f 54/57/27 55/58/27 53/56/27
f 56/59/28 57/60/28 55/58/28
f 58/61/29 59/62/29 57/60/29
f 60/63/30 61/64/30 59/62/30
f 54/65/31 38/66/31 22/67/31
f 62/68/32 63/69/32 61/64/32
f 64/70/33 1/3/33 63/69/33
f 15/71/34 31/72/34 47/73/34
f 2/1/1 4/4/1 3/2/1
f 4/4/2 6/74/2 5/5/2
f 6/6/3 8/75/3 7/7/3
f 8/9/4 10/12/4 9/10/4
f 10/12/5 12/14/5 11/13/5
f 12/14/6 14/16/6 13/15/6
f 14/16/7 16/18/7 15/17/7
f 16/18/8 18/20/8 17/19/8
f 18/20/9 20/22/9 19/21/9
f 20/22/10 22/24/10 21/23/10
f 22/24/11 24/26/11 23/25/11
f 24/26/12 26/28/12 25/27/12
f 26/28/13 28/30/13 27/29/13
f 28/30/14 30/32/14 29/31/14
f 30/32/15 32/34/15 31/33/15
f 32/34/16 34/36/16 33/35/16
f 34/36/17 36/38/17 35/37/17
f 36/38/18 38/76/18 37/39/18
f 38/40/19 40/43/19 39/41/19
f 40/43/20 42/45/20 41/44/20
f 42/45/21 44/47/21 43/46/21
f 44/47/22 46/49/22 45/48/22
f 46/49/23 48/51/23 47/50/23
f 48/51/24 50/53/24 49/52/24
f 50/53/25 52/55/25 51/54/25
f 52/55/26 54/57/26 53/56/26
f 54/57/27 56/59/27 55/58/27
f 56/59/28 58/61/28 57/60/28
f 58/61/29 60/63/29 59/62/29
f 60/63/30 62/68/30 61/64/30
f 6/77/31 4/78/31 2/79/31
f 2/79/31 64/80/31 6/77/31
f 64/80/31 62/81/31 6/77/31
f 62/81/31 60/82/31 58/83/31
f 58/83/31 56/84/31 54/65/31
f 54/65/31 52/85/31 50/86/31
f 50/86/31 48/87/31 54/65/31
f 48/87/31 46/88/31 54/65/31
f 46/88/31 44/89/31 38/66/31
f 44/89/31 42/90/31 38/66/31
f 42/90/31 40/91/31 38/66/31
f 38/66/31 36/92/31 34/93/31
f 34/93/31 32/94/31 30/95/31
f 30/95/31 28/96/31 26/97/31
f 26/97/31 24/98/31 22/67/31
f 22/67/31 20/99/31 18/100/31
f 18/100/31 16/101/31 22/67/31
f 16/101/31 14/102/31 22/67/31
f 14/102/31 12/103/31 10/104/31
f 10/104/31 8/105/31 6/77/31
f 62/81/31 58/83/31 6/77/31
f 58/83/31 54/65/31 6/77/31
f 38/66/31 34/93/31 22/67/31
f 34/93/31 30/95/31 22/67/31
f 30/95/31 26/97/31 22/67/31
f 14/102/31 10/104/31 22/67/31
f 10/104/31 6/77/31 22/67/31
f 54/65/31 46/88/31 38/66/31
f 6/77/31 54/65/31 22/67/31
f 62/68/32 64/70/32 63/69/32
f 64/70/33 2/1/33 1/3/33
f 63/106/34 1/107/34 3/108/34
f 3/108/34 5/109/34 7/110/34
f 7/110/34 9/111/34 11/112/34
f 11/112/34 13/113/34 7/110/34
f 13/113/34 15/71/34 7/110/34
f 15/71/34 17/114/34 19/115/34
f 19/115/34 21/116/34 15/71/34
f 21/116/34 23/117/34 15/71/34
f 23/117/34 25/118/34 31/72/34
f 25/118/34 27/119/34 31/72/34
f 27/119/34 29/120/34 31/72/34
f 31/72/34 33/121/34 35/122/34
f 35/122/34 37/123/34 39/124/34
f 39/124/34 41/125/34 43/126/34
f 43/126/34 45/127/34 47/73/34
f 47/73/34 49/128/34 51/129/34
f 51/129/34 53/130/34 55/131/34
f 55/131/34 57/132/34 63/106/34
f 57/132/34 59/133/34 63/106/34
f 59/133/34 61/134/34 63/106/34
f 63/106/34 3/108/34 7/110/34
f 31/72/34 35/122/34 47/73/34
f 35/122/34 39/124/34 47/73/34
f 39/124/34 43/126/34 47/73/34
f 47/73/34 51/129/34 63/106/34
f 51/129/34 55/131/34 63/106/34
f 63/106/34 7/110/34 15/71/34
f 15/71/34 23/117/34 31/72/34
f 63/106/34 15/71/34 47/73/34
