# Blender v2.79 (sub 0) OBJ File: 'house.blend'
# www.blender.org
mtllib house.mtl
v -1.473753 -0.121088 4.300000
v -0.854873 12.300000 0.854873
v -4.300000 -0.300000 -4.300000
v -0.854873 12.300000 -0.854873
v 1.473753 -0.121088 4.300000
v 0.854873 12.300000 0.854873
v 4.300000 -0.300000 -4.300000
v 0.854873 12.300000 -0.854873
v -1.473753 4.416643 4.300000
v -4.300000 8.299999 -4.300000
v 4.300000 8.299999 -4.300000
v 1.473753 4.416643 4.300000
v -6.243380 8.196098 6.243380
v -6.243380 8.196098 -6.243380
v 6.243380 8.196098 -6.243380
v 6.243380 8.196098 6.243380
v -0.854873 12.300000 0.854873
v -0.854873 12.300000 -0.854873
v 0.854873 12.300000 -0.854873
v 0.854873 12.300000 0.854873
v -6.243380 8.863700 6.243380
v -6.243380 8.863700 -6.243380
v 6.243380 8.863700 -6.243380
v 6.243380 8.863700 6.243380
v -0.854873 12.759797 0.854873
v -0.854873 12.759797 -0.854873
v 0.854873 12.759797 -0.854873
v 0.854873 12.759797 0.854873
v -4.300000 -0.300000 4.300000
v -4.300000 8.299999 4.300000
v 4.300000 8.299999 4.300000
v 4.300000 -0.300000 4.300000
vt 0.530799 0.475002
vt 0.975024 0.030778
vt 0.530799 0.030778
vt 0.522054 0.481561
vt 0.966279 0.037337
vt 0.522054 0.037337
vt 0.970651 0.477189
vt 0.526427 0.032964
vt 0.970651 0.032964
vt 0.982217 0.991796
vt 0.518684 0.511964
vt 0.982217 0.511964
vt 0.971949 0.472670
vt 0.527725 0.028446
vt 0.527725 0.472670
vt 0.000000 0.000000
vt 1.000000 1.000000
vt 0.000000 1.000000
vt 0.138625 0.731935
vt 0.432399 0.723161
vt 0.138626 0.724778
vt 0.000000 0.000000
vt 1.000000 1.000000
vt 0.000000 1.000000
vt 0.000000 0.000000
vt 1.000000 1.000000
vt 0.000000 1.000000
vt 1.000000 0.000000
vt 0.000000 1.000000
vt 0.000000 0.000000
vt -0.001726 0.655499
vt 0.490007 0.692157
vt 0.490007 0.655499
vt -0.001726 0.655499
vt 0.490007 0.692157
vt 0.490007 0.655499
vt 1.000000 0.000000
vt 0.000000 1.000000
vt 0.000000 0.000000
vt 0.000000 0.000000
vt 1.000000 1.000000
vt 0.000000 1.000000
vt 0.149686 0.732253
vt 0.443459 0.723479
vt 0.149686 0.725097
vt 0.142892 0.732094
vt 0.436666 0.723320
vt 0.142893 0.724937
vt 0.134359 0.732094
vt 0.428132 0.723320
vt 0.134359 0.724937
vt 0.214992 0.970446
vt 0.495407 0.503668
vt 0.282535 0.970446
vt 0.215499 0.968063
vt 0.495914 0.501285
vt 0.283042 0.968063
vt 0.214079 0.968519
vt 0.494494 0.501741
vt 0.281623 0.968519
vt 0.214536 0.968976
vt 0.494951 0.502198
vt 0.282079 0.968976
vt 1.000000 0.000000
vt 0.000000 1.000000
vt 0.000000 0.000000
vt 0.490007 0.692157
vt -0.001726 0.655499
vt -0.001726 0.692157
vt 0.490007 0.692157
vt -0.001726 0.655499
vt -0.001726 0.692157
vt 1.000000 0.000000
vt 0.000000 1.000000
vt 0.000000 0.000000
vt 0.232974 0.646213
vt 0.253097 0.666336
vt 0.253097 0.646213
vt 0.676786 0.333388
vt 0.530799 0.035151
vt 0.676786 0.181138
vt 0.829037 0.333388
vt 0.975024 0.035151
vt 0.975024 0.479375
vt 0.829037 0.181138
vt 0.530799 0.479375
vt 0.975024 0.475002
vt 0.966279 0.481561
vt 0.526427 0.477189
vt 0.518684 0.991796
vt 0.971949 0.028446
vt 1.000000 0.000000
vt 0.432398 0.733552
vt 1.000000 0.000000
vt 1.000000 0.000000
vt 1.000000 1.000000
vt -0.001726 0.692157
vt -0.001726 0.692157
vt 1.000000 1.000000
vt 1.000000 0.000000
vt 0.443459 0.733870
vt 0.436665 0.733711
vt 0.428132 0.733711
vt 0.002120 0.503668
vt 0.002627 0.501285
vt 0.001208 0.501741
vt 0.001664 0.502198
vt 1.000000 1.000000
vt 0.490007 0.655499
vt 0.490007 0.655499
vt 1.000000 1.000000
vt 0.232974 0.666336
vn -1.0000 0.0000 0.0000
vn 0.0000 0.0000 -1.0000
vn 1.0000 0.0000 0.0000
vn 0.0000 0.0000 1.0000
vn 0.0000 -1.0000 0.0000
vn -0.0534 -0.9986 0.0000
vn 0.0534 -0.9986 0.0000
vn 0.0000 -0.9986 -0.0534
vn 0.0000 -0.9986 0.0534
vn -0.5859 0.8104 0.0000
vn 0.0000 0.8104 -0.5859
vn 0.5859 0.8104 0.0000
vn 0.0000 0.8104 0.5859
usemtl Material.001
s off
f 30/1/1 3/2/1 29/3/1
f 10/4/2 7/5/2 3/6/2
f 11/7/3 32/8/3 7/9/3
f 12/10/4 1/11/4 5/12/4
f 7/13/5 29/14/5 3/15/5
f 6/16/4 17/17/4 20/18/4
f 11/19/6 16/20/6 31/21/6
f 2/22/4 18/23/4 17/24/4
f 8/25/4 20/26/4 19/27/4
f 20/28/1 27/29/1 19/30/1
f 14/31/2 23/32/2 15/33/2
f 16/34/4 21/35/4 13/36/4
f 19/37/4 26/38/4 18/39/4
f 4/40/4 19/41/4 18/42/4
f 30/43/7 14/44/7 10/45/7
f 31/46/8 13/47/8 30/48/8
f 10/49/9 15/50/9 11/51/9
f 26/52/10 21/53/10 25/54/10
f 27/55/11 22/56/11 26/57/11
f 28/58/12 23/59/12 27/60/12
f 25/61/13 24/62/13 28/63/13
f 18/64/3 25/65/3 17/66/3
f 15/67/3 24/68/3 16/69/3
f 13/70/1 22/71/1 14/72/1
f 17/73/2 28/74/2 20/75/2
f 25/76/5 27/77/5 28/78/5
f 9/79/4 29/80/4 1/81/4
f 12/82/4 32/83/4 31/84/4
f 1/81/4 32/83/4 5/85/4
f 12/82/4 30/86/4 9/79/4
f 30/1/1 10/87/1 3/2/1
f 10/4/2 11/88/2 7/5/2
f 11/7/3 31/89/3 32/8/3
f 12/10/4 9/90/4 1/11/4
f 7/13/5 32/91/5 29/14/5
f 6/16/4 2/92/4 17/17/4
f 11/19/6 15/93/6 16/20/6
f 2/22/4 4/94/4 18/23/4
f 8/25/4 6/95/4 20/26/4
f 20/28/1 28/96/1 27/29/1
f 14/31/2 22/97/2 23/32/2
f 16/34/4 24/98/4 21/35/4
f 19/37/4 27/99/4 26/38/4
f 4/40/4 8/100/4 19/41/4
f 30/43/7 13/101/7 14/44/7
f 31/46/8 16/102/8 13/47/8
f 10/49/9 14/103/9 15/50/9
f 26/52/10 22/104/10 21/53/10
f 27/55/11 23/105/11 22/56/11
f 28/58/12 24/106/12 23/59/12
f 25/61/13 21/107/13 24/62/13
f 18/64/3 26/108/3 25/65/3
f 15/67/3 23/109/3 24/68/3
f 13/70/1 21/110/1 22/71/1
f 17/73/2 25/111/2 28/74/2
f 25/76/5 26/112/5 27/77/5
f 9/79/4 30/86/4 29/80/4
f 12/82/4 5/85/4 32/83/4
f 1/81/4 29/80/4 32/83/4
f 12/82/4 31/84/4 30/86/4
